<svg width="560" height="222" viewBox="0 0 560 222" fill="none" xmlns="http://www.w3.org/2000/svg">
<path d="M381.48 176.7V142.8L487.38 6H532.38V142.8H559.38V176.7H532.38V216H492.48V176.7H381.48ZM423.78 142.8H492.48V55.8L423.78 142.8Z" fill="#2145A0"/>
<path d="M276.505 222C215.305 222 182.605 173.1 182.605 111C182.605 48.9 215.305 0 276.505 0C337.705 0 370.405 48.9 370.405 111C370.405 173.1 337.705 222 276.505 222ZM276.505 184.2C316.405 184.2 330.805 148.5 330.805 111C330.805 73.5 316.405 37.8 276.505 37.8C236.605 37.8 222.205 73.5 222.205 111C222.205 148.5 236.605 184.2 276.505 184.2Z" fill="#2145A0"/>
<path d="M0.621094 176.7V142.8L106.521 6H151.521V142.8H178.521V176.7H151.521V216H111.621V176.7H0.621094ZM42.9211 142.8H111.621V55.8L42.9211 142.8Z" fill="#2145A0"/>
</svg>
