<svg width="24" height="24" viewBox="0 0 24 24" fill="none" xmlns="http://www.w3.org/2000/svg">
<path d="M20.3501 8.923L19.9839 8.71927C19.927 8.68763 19.8986 8.67176 19.8711 8.65531C19.598 8.49172 19.368 8.26529 19.2 7.99489C19.1831 7.96768 19.1665 7.93956 19.134 7.88317L19.1338 7.88295C19.1013 7.82663 19.0849 7.7983 19.0698 7.77005C18.9191 7.48873 18.8381 7.17547 18.8332 6.85638C18.8327 6.82759 18.8332 6.79813 18.8341 6.74528L18.8345 6.72624L18.8415 6.30924C18.853 5.6232 18.8587 5.28024 18.7627 4.97269C18.6777 4.7006 18.5358 4.44977 18.346 4.23709C18.1319 3.99711 17.8349 3.82601 17.2425 3.48461L17.2394 3.48283L16.7456 3.19827C16.1527 2.85664 15.8562 2.6859 15.5415 2.62076C15.2631 2.56313 14.9755 2.56543 14.6981 2.62772C14.3853 2.69794 14.0927 2.8731 13.5087 3.22282L13.5042 3.2255L13.1504 3.43736C13.0944 3.47086 13.0661 3.48757 13.0381 3.50316C12.7598 3.65788 12.4487 3.74397 12.1304 3.75418C12.0983 3.75521 12.0657 3.75521 12.0005 3.75521H11.9997C11.9348 3.75521 11.9026 3.75521 11.8706 3.75418C11.5517 3.74392 11.2395 3.65745 10.9608 3.50209C10.9337 3.487 10.9068 3.47085 10.8548 3.43958L10.8487 3.43597L10.4927 3.2222L10.49 3.22059C9.90242 2.86784 9.60836 2.6913 9.29394 2.62076C9.01537 2.55826 8.72642 2.55616 8.44695 2.61453C8.13104 2.68052 7.83365 2.85309 7.23912 3.19815L6.75146 3.48119C6.16002 3.82445 5.86473 3.99601 5.65136 4.23616C5.4626 4.44862 5.32121 4.69888 5.23677 4.97025C5.14131 5.27698 5.14669 5.61891 5.1582 6.30264L5.16534 6.7273C5.16642 6.79161 5.16714 6.82379 5.16668 6.85542C5.16194 7.17516 5.08052 7.48909 4.92941 7.77091C4.91446 7.79878 4.89836 7.82665 4.8662 7.88232C4.83402 7.93803 4.81795 7.96582 4.80126 7.99271C4.63254 8.26456 4.40106 8.49205 4.12626 8.65592C4.09907 8.67212 4.07117 8.68771 4.01488 8.7189L3.65331 8.91927L3.65319 8.91934C3.05171 9.25266 2.75102 9.41929 2.53222 9.65669C2.33865 9.86672 2.19207 10.1158 2.10281 10.3871C2.00204 10.6934 2.00282 11.0368 2.00438 11.7228L2.00439 11.7255L2.00566 12.2876L2.00568 12.2937C2.00722 12.9728 2.00799 13.3133 2.10882 13.617C2.19829 13.8865 2.34413 14.1338 2.53661 14.3426C2.75395 14.5783 3.05224 14.7442 3.64794 15.0756L3.6499 15.0767L4.00824 15.276L4.01321 15.2788C4.07091 15.3109 4.10066 15.3275 4.12926 15.3447C4.40157 15.5087 4.63056 15.7352 4.79785 16.0055C4.81591 16.0347 4.83326 16.065 4.86793 16.1256L4.86796 16.1256C4.90222 16.1855 4.91956 16.2154 4.9354 16.2454C5.08207 16.5231 5.16134 16.8314 5.16669 17.1454C5.16727 17.1793 5.16673 17.2139 5.16556 17.2829L5.15868 17.6904L5.15866 17.6919C5.14709 18.377 5.14131 18.7197 5.23726 19.027C5.3222 19.2991 5.46451 19.5499 5.65429 19.7626C5.86882 20.003 6.16573 20.1744 6.76025 20.517L7.25395 20.8015C7.8468 21.1431 8.14366 21.3139 8.45841 21.379C8.73685 21.4366 9.02431 21.4343 9.30175 21.372C9.61469 21.3017 9.90731 21.1265 10.4919 20.7765L10.4956 20.7743L10.8494 20.5624C10.9054 20.5289 10.9336 20.5122 10.9616 20.4966C11.2399 20.3419 11.5509 20.2558 11.8691 20.2456C11.9012 20.2445 11.9338 20.2445 11.9991 20.2445C12.0645 20.2445 12.0976 20.2445 12.1297 20.2456C12.4486 20.2558 12.7603 20.3422 13.0391 20.4976C13.0671 20.5132 13.0953 20.5301 13.1514 20.5638L13.5074 20.7775L13.5081 20.7779C14.097 21.1315 14.3915 21.3083 14.7063 21.3789C14.9848 21.4414 15.2733 21.4436 15.5527 21.3852C15.8686 21.3193 16.1662 21.1467 16.7607 20.8016L17.2484 20.5186C17.8398 20.1753 18.1352 20.0037 18.3486 19.7636C18.5373 19.5511 18.6787 19.3009 18.7632 19.0295C18.8586 18.7228 18.8531 18.3809 18.8416 17.6972L18.8345 17.2725L18.8341 17.251C18.8332 17.2006 18.8328 17.1723 18.8332 17.1444C18.8379 16.8247 18.9192 16.5107 19.0703 16.2289C19.0852 16.2011 19.1013 16.1732 19.1334 16.1177L19.1335 16.1175C19.1657 16.0618 19.1821 16.0339 19.1988 16.007C19.3675 15.7351 19.5987 15.5078 19.8735 15.3439C19.8998 15.3282 19.9272 15.3131 19.9798 15.2839L19.9853 15.2808L20.3469 15.0805C20.9485 14.7471 21.249 14.5805 21.4678 14.3431C21.6614 14.133 21.8077 13.884 21.897 13.6127C21.9979 13.306 21.9975 12.9621 21.9959 12.2743L21.9946 11.7122C21.9931 11.029 21.9922 10.6873 21.8911 10.3827C21.8016 10.1132 21.6557 9.86592 21.4632 9.65716C21.2456 9.42119 20.9471 9.25512 20.3501 8.923Z" stroke="#2145A0" stroke-linecap="round" stroke-linejoin="round"/>
</svg>
