<svg width="24" height="24" viewBox="0 0 24 24" fill="none" xmlns="http://www.w3.org/2000/svg">
<path d="M3 5H3.27244C3.75344 5 3.99415 5 4.19034 5.08548C4.36331 5.16084 4.5114 5.2823 4.61805 5.43616C4.739 5.61066 4.78255 5.84366 4.86988 6.30957L7.06102 18L10.1067 18M5.53811 7.99999H9.09148M10.1067 18L9.09148 7.99999M10.1067 18L13.1525 18M9.09148 7.99999H13.1525M13.1525 18V7.99999M13.1525 18L16.1982 18M13.1525 7.99999H17.2134M16.1982 18L17.6393 18C18.1007 18 18.3318 17.9999 18.5227 17.9198C18.6911 17.849 18.8367 17.7348 18.9445 17.5891C19.0668 17.4239 19.1184 17.2025 19.2221 16.7597L20.8153 9.9597C20.9721 9.29023 21.0507 8.9556 20.9644 8.69261C20.8888 8.46205 20.7302 8.26633 20.5191 8.14191C20.2784 7.99999 19.93 7.99999 19.2325 7.99999H17.2134M16.1982 18L17.2134 7.99999" stroke="white" stroke-linecap="round" stroke-linejoin="round"/>
</svg>
