<svg width="24" height="24" viewBox="0 0 24 24" fill="none" xmlns="http://www.w3.org/2000/svg">
<path d="M15.3536 14.6464C15.1583 14.4512 14.8417 14.4512 14.6464 14.6464C14.4512 14.8417 14.4512 15.1583 14.6464 15.3536L15 15L15.3536 14.6464ZM20.6464 21.3536C20.8417 21.5488 21.1583 21.5488 21.3536 21.3536C21.5488 21.1583 21.5488 20.8417 21.3536 20.6464L21 21L20.6464 21.3536ZM10 17V16.5C6.41015 16.5 3.5 13.5899 3.5 10H3H2.5C2.5 14.1421 5.85786 17.5 10 17.5V17ZM3 10H3.5C3.5 6.41015 6.41015 3.5 10 3.5V3V2.5C5.85786 2.5 2.5 5.85786 2.5 10H3ZM10 3V3.5C13.5899 3.5 16.5 6.41015 16.5 10H17H17.5C17.5 5.85786 14.1421 2.5 10 2.5V3ZM17 10H16.5C16.5 13.5899 13.5899 16.5 10 16.5V17V17.5C14.1421 17.5 17.5 14.1421 17.5 10H17ZM15 15L14.6464 15.3536L20.6464 21.3536L21 21L21.3536 20.6464L15.3536 14.6464L15 15Z" fill="#101010"/>
</svg>
