<svg width="24" height="24" viewBox="0 0 24 24" fill="none" xmlns="http://www.w3.org/2000/svg">
<path d="M20.7207 4.29639C20.4413 7.29079 19.2517 14.5537 18.6387 17.9438V17.9448C18.5578 18.3954 18.4592 18.6546 18.3906 18.7915C18.2786 18.7663 18.1299 18.7089 17.917 18.5796C17.7374 18.4705 17.545 18.3335 17.3057 18.1577C17.0798 17.9918 16.8039 17.7847 16.5156 17.5894C15.71 17.0428 15.0792 16.5999 14.4473 16.1548C13.8149 15.7094 13.1793 15.2606 12.376 14.7134C12.288 14.6534 12.2182 14.6 12.1621 14.5552C12.1837 14.5314 12.2076 14.5052 12.2344 14.4771C12.3337 14.3726 12.4427 14.2646 12.5781 14.1294C12.7077 14.0001 12.8559 13.851 13.0049 13.6909L13.0059 13.6899C13.0114 13.6844 13.029 13.6672 13.0645 13.6323C13.1103 13.5872 13.1718 13.5264 13.249 13.4517C13.4034 13.3023 13.6101 13.1037 13.8535 12.8696C14.3385 12.4032 14.9643 11.8011 15.585 11.1948C16.2038 10.5904 16.8273 9.97316 17.3047 9.47705C17.5415 9.23094 17.7555 9.00086 17.9189 8.81104C17.9991 8.71788 18.0832 8.61579 18.1553 8.51611C18.1909 8.46681 18.2364 8.40044 18.2803 8.32373C18.3118 8.26866 18.4007 8.11009 18.4482 7.896L18.4473 7.89502C18.4894 7.70486 18.5001 7.48223 18.4688 7.26221C18.438 7.04631 18.3369 6.62334 17.9629 6.27686H17.9639C17.9617 6.27487 17.9592 6.27296 17.957 6.271C17.954 6.26821 17.9513 6.26499 17.9482 6.26221L17.9473 6.26318C17.5685 5.91925 17.1365 5.8494 16.8662 5.84717C16.8209 5.84679 16.7767 5.84929 16.7344 5.85205C18.1213 5.26459 19.0675 4.87796 19.7402 4.62549C20.2147 4.44742 20.5205 4.35015 20.7207 4.29639ZM15.3369 6.45361C14.9796 6.6884 14.4717 7.03071 13.8174 7.47803C12.5069 8.37398 10.5858 9.70561 8.05566 11.4712L8.0459 11.479C7.42954 11.9175 7.04425 12.0029 6.8457 11.9985C6.68482 11.995 6.33184 11.9351 5.81934 11.8022C5.33928 11.6778 4.81386 11.5148 4.3584 11.3618C4.34313 11.3567 4.32767 11.3522 4.3125 11.3472C9.47531 9.02233 12.9222 7.48568 14.6641 6.73584C14.9044 6.6325 15.136 6.53428 15.3584 6.43896C15.3512 6.44369 15.3442 6.44882 15.3369 6.45361ZM16.9658 8.53857H16.9648L16.8379 7.99268H16.8389L16.9658 8.53857Z" fill="white" stroke="white" stroke-width="2.7"/>
</svg>
