<svg width="24" height="24" viewBox="0 0 24 24" fill="none" xmlns="http://www.w3.org/2000/svg">
<path d="M20.7207 4.29648C20.4413 7.29088 19.2517 14.5538 18.6387 17.9439V17.9449C18.5578 18.3955 18.4592 18.6547 18.3906 18.7916C18.2786 18.7664 18.1299 18.709 17.917 18.5797C17.7374 18.4706 17.545 18.3336 17.3057 18.1578C17.0798 17.9919 16.8039 17.7848 16.5156 17.5894C15.71 17.0429 15.0792 16.6 14.4473 16.1549C13.8149 15.7094 13.1793 15.2606 12.376 14.7135C12.288 14.6535 12.2182 14.6001 12.1621 14.5553C12.1837 14.5315 12.2076 14.5053 12.2344 14.4771C12.3337 14.3726 12.4427 14.2646 12.5781 14.1295C12.7077 14.0002 12.8559 13.8511 13.0049 13.691L13.0059 13.69C13.0114 13.6845 13.029 13.6673 13.0645 13.6324C13.1103 13.5873 13.1718 13.5264 13.249 13.4518C13.4034 13.3024 13.6101 13.1038 13.8535 12.8697C14.3385 12.4033 14.9643 11.8012 15.585 11.1949C16.2038 10.5905 16.8273 9.97325 17.3047 9.47714C17.5415 9.23103 17.7555 9.00095 17.9189 8.81113C17.9991 8.71797 18.0832 8.61588 18.1553 8.5162C18.1909 8.4669 18.2364 8.40053 18.2803 8.32382C18.3118 8.26876 18.4007 8.11018 18.4482 7.89609L18.4473 7.89511C18.4894 7.70495 18.5001 7.48232 18.4688 7.2623C18.438 7.0464 18.3369 6.62343 17.9629 6.27695H17.9639C17.9617 6.27497 17.9592 6.27305 17.957 6.27109C17.954 6.2683 17.9513 6.26508 17.9482 6.2623L17.9473 6.26328C17.5685 5.91934 17.1365 5.8495 16.8662 5.84726C16.8209 5.84689 16.7767 5.84938 16.7344 5.85214C18.1213 5.26469 19.0675 4.87805 19.7402 4.62558C20.2147 4.44751 20.5205 4.35024 20.7207 4.29648ZM15.3369 6.4537C14.9796 6.68849 14.4717 7.0308 13.8174 7.47812C12.5069 8.37407 10.5858 9.7057 8.05566 11.4713L8.0459 11.4791C7.42954 11.9176 7.04425 12.003 6.8457 11.9986C6.68482 11.9951 6.33184 11.9352 5.81934 11.8023C5.33928 11.6779 4.81386 11.5149 4.3584 11.3619C4.34313 11.3568 4.32767 11.3523 4.3125 11.3473C9.47531 9.02242 12.9222 7.48577 14.6641 6.73593C14.9044 6.63259 15.136 6.53437 15.3584 6.43906C15.3512 6.44378 15.3442 6.44891 15.3369 6.4537ZM16.9658 8.53867H16.9648L16.8379 7.99277H16.8389L16.9658 8.53867Z" fill="#101010" stroke="#101010" stroke-width="2.7"/>
</svg>
