<svg width="24" height="24" viewBox="0 0 24 24" fill="none" xmlns="http://www.w3.org/2000/svg">
<mask id="mask0_648_10131" style="mask-type:luminance" maskUnits="userSpaceOnUse" x="0" y="0" width="24" height="24">
<path d="M22.6504 1.34961V22.6504H1.34961V1.34961H22.6504Z" fill="white" stroke="white" stroke-width="2.7"/>
</mask>
<g mask="url(#mask0_648_10131)">
<path d="M23.446 6.37469C23.6116 5.81091 23.446 5.3999 22.6502 5.3999H20.0251C19.3589 5.3999 19.0492 5.75636 18.8835 6.14918C18.8835 6.14918 17.5476 9.43729 15.6571 11.5724C15.0449 12.1907 14.7676 12.3871 14.4327 12.3871C14.2671 12.3871 14.0258 12.1907 14.0258 11.6269V6.37469C14.0258 5.7018 13.8314 5.3999 13.2768 5.3999H9.15009C8.73238 5.3999 8.48031 5.71271 8.48031 6.01097C8.48031 6.65113 9.42737 6.79662 9.5246 8.59707V12.5035C9.5246 13.3583 9.36975 13.5147 9.03846 13.5147C8.14902 13.5147 5.98483 10.212 4.69928 6.43289C4.44721 5.69816 4.19514 5.40354 3.52536 5.40354H0.900245C0.151241 5.40354 0 5.75999 0 6.15282C0 6.85481 0.889443 10.3393 4.14473 14.9478C6.31612 18.094 9.36975 19.7999 12.1533 19.7999C13.8206 19.7999 14.0294 19.4216 14.0294 18.7669V16.3881C14.0294 15.6316 14.1879 15.4788 14.7172 15.4788C15.1061 15.4788 15.7759 15.6752 17.3315 17.192C19.1104 18.9888 19.4057 19.7963 20.4068 19.7963H23.0319C23.7809 19.7963 24.1554 19.418 23.9393 18.6687C23.7017 17.9231 22.8518 16.8428 21.7247 15.5588C21.1126 14.8277 20.1943 14.0421 19.917 13.6493C19.5281 13.1437 19.6397 12.9182 19.917 12.4708C19.9134 12.4708 23.1111 7.92054 23.446 6.37469Z" fill="white"/>
</g>
</svg>
