<svg width="24" height="24" viewBox="0 0 24 24" fill="none" xmlns="http://www.w3.org/2000/svg">
<g clip-path="url(#clip0_53_285)">
<path d="M0.10032 11.892C0.0996599 13.9879 0.64968 16.034 1.69538 17.8376L0 24L6.33478 22.3465C8.08022 23.2939 10.0454 23.7933 12.045 23.7941H12.0502C18.636 23.7941 23.9972 18.4585 24 11.9015C24.0012 8.72374 22.7592 5.73553 20.5032 3.48764C18.2468 1.24 15.2468 0.00130432 12.0502 0C5.46338 0 0.10294 5.33485 0.10032 11.892ZM3.87282 17.527L3.63628 17.1531C2.64196 15.5793 2.11716 13.7603 2.1179 11.8927C2.12006 6.44261 6.57544 2.0085 12.054 2.0085C14.7072 2.00963 17.2004 3.03925 19.0758 4.90739C20.9512 6.77572 21.983 9.25929 21.9824 11.9008C21.98 17.3508 17.5244 21.7855 12.0502 21.7855H12.0464C10.2638 21.7847 8.51568 21.3081 6.99112 20.4075L6.62832 20.1934L2.86912 21.1745L3.87282 17.527Z" fill="#101010"/>
<path d="M9.0643 6.92038C8.84062 6.42545 8.60522 6.41545 8.3925 6.40678C8.2183 6.39932 8.01918 6.39988 7.82024 6.39988C7.62112 6.39988 7.29758 6.47445 7.02412 6.77171C6.75038 7.06926 5.979 7.78827 5.979 9.25069C5.979 10.7132 7.04896 12.1265 7.19812 12.325C7.34746 12.5233 9.26372 15.6203 12.2987 16.8118C14.8209 17.8019 15.3341 17.6051 15.8815 17.5553C16.4291 17.5059 17.6481 16.8365 17.8969 16.1424C18.1457 15.4483 18.1457 14.8536 18.0711 14.7292C17.9965 14.6053 17.7975 14.5309 17.4989 14.3824C17.2001 14.2337 15.7323 13.5145 15.4585 13.4154C15.1847 13.3163 14.9857 13.2667 14.7867 13.5645C14.5875 13.8615 14.0157 14.5309 13.8415 14.7292C13.6673 14.9278 13.4931 14.9527 13.1945 14.804C12.8957 14.6547 11.9342 14.3413 10.7933 13.3287C9.90572 12.5409 9.30646 11.5679 9.13228 11.2702C8.95808 10.9731 9.11362 10.812 9.26334 10.6638C9.3975 10.5306 9.56202 10.3167 9.71146 10.1432C9.86034 9.96963 9.91002 9.84578 10.0096 9.64755C10.1092 9.44913 10.0594 9.27553 9.98484 9.12684C9.91002 8.97817 9.3298 7.50811 9.0643 6.92038Z" fill="#101010"/>
</g>
<defs>
<clipPath id="clip0_53_285">
<rect width="24" height="24" fill="white"/>
</clipPath>
</defs>
</svg>
