<svg width="24" height="24" viewBox="0 0 24 24" fill="none" xmlns="http://www.w3.org/2000/svg">
<g clip-path="url(#clip0_648_10136)">
<mask id="path-1-inside-1_648_10136" fill="white">
<path d="M0.10032 11.892C0.0996599 13.9879 0.64968 16.034 1.69538 17.8376L0 24L6.33478 22.3465C8.08022 23.2939 10.0454 23.7933 12.045 23.7941H12.0502C18.636 23.7941 23.9972 18.4585 24 11.9015C24.0012 8.72374 22.7592 5.73553 20.5032 3.48764C18.2468 1.24 15.2468 0.00130432 12.0502 0C5.46338 0 0.10294 5.33485 0.10032 11.892ZM3.87282 17.527L3.63628 17.1531C2.64196 15.5793 2.11716 13.7603 2.1179 11.8927C2.12006 6.44261 6.57544 2.0085 12.054 2.0085C14.7072 2.00963 17.2004 3.03925 19.0758 4.90739C20.9512 6.77572 21.983 9.25929 21.9824 11.9008C21.98 17.3508 17.5244 21.7855 12.0502 21.7855H12.0464C10.2638 21.7847 8.51568 21.3081 6.99112 20.4075L6.62832 20.1934L2.86912 21.1745L3.87282 17.527Z"/>
</mask>
<path d="M0.10032 11.892C0.0996599 13.9879 0.64968 16.034 1.69538 17.8376L0 24L6.33478 22.3465C8.08022 23.2939 10.0454 23.7933 12.045 23.7941H12.0502C18.636 23.7941 23.9972 18.4585 24 11.9015C24.0012 8.72374 22.7592 5.73553 20.5032 3.48764C18.2468 1.24 15.2468 0.00130432 12.0502 0C5.46338 0 0.10294 5.33485 0.10032 11.892ZM3.87282 17.527L3.63628 17.1531C2.64196 15.5793 2.11716 13.7603 2.1179 11.8927C2.12006 6.44261 6.57544 2.0085 12.054 2.0085C14.7072 2.00963 17.2004 3.03925 19.0758 4.90739C20.9512 6.77572 21.983 9.25929 21.9824 11.9008C21.98 17.3508 17.5244 21.7855 12.0502 21.7855H12.0464C10.2638 21.7847 8.51568 21.3081 6.99112 20.4075L6.62832 20.1934L2.86912 21.1745L3.87282 17.527Z" fill="white"/>
<path d="M0.10032 11.892L-2.59968 11.8909V11.8912L0.10032 11.892ZM1.69538 17.8376L4.29866 18.5538L4.5989 17.4625L4.03117 16.4833L1.69538 17.8376ZM0 24L-2.60328 23.2838L-3.84406 27.7938L0.681894 26.6125L0 24ZM6.33478 22.3465L7.62273 19.9735L6.68511 19.4646L5.65289 19.7341L6.33478 22.3465ZM12.045 23.7941L12.0439 26.4941H12.045V23.7941ZM24 11.9015L26.7 11.9027V11.9025L24 11.9015ZM20.5032 3.48764L22.409 1.57502L22.4087 1.57474L20.5032 3.48764ZM12.0502 0L12.0513 -2.7H12.0502V0ZM3.87282 17.527L6.47606 18.2433L6.79282 17.0922L6.15445 16.0833L3.87282 17.527ZM3.63628 17.1531L1.35368 18.5953L1.35465 18.5968L3.63628 17.1531ZM2.1179 11.8927L-0.5821 11.8917L2.1179 11.8927ZM12.054 2.0085L12.0551 -0.691496H12.054V2.0085ZM19.0758 4.90739L20.9814 2.9946L20.9813 2.99451L19.0758 4.90739ZM21.9824 11.9008L24.6824 11.902V11.9014L21.9824 11.9008ZM12.0464 21.7855L12.0452 24.4855H12.0464V21.7855ZM6.99112 20.4075L8.36435 18.0828L8.36339 18.0822L6.99112 20.4075ZM6.62832 20.1934L8.00059 17.8681L7.0333 17.2973L5.94653 17.5809L6.62832 20.1934ZM2.86912 21.1745L0.265883 20.4581L-0.975176 24.9681L3.55091 23.787L2.86912 21.1745ZM0.10032 11.892L-2.59968 11.8912C-2.60049 14.4617 -1.92544 16.9756 -0.640411 19.1919L1.69538 17.8376L4.03117 16.4833C3.2248 15.0925 2.79981 13.514 2.80032 11.8929L0.10032 11.892ZM1.69538 17.8376L-0.907896 17.1214L-2.60328 23.2838L0 24L2.60328 24.7162L4.29866 18.5538L1.69538 17.8376ZM0 24L0.681894 26.6125L7.01667 24.959L6.33478 22.3465L5.65289 19.7341L-0.681894 21.3875L0 24ZM6.33478 22.3465L5.04683 24.7195C7.18862 25.882 9.59631 26.4931 12.0439 26.4941L12.045 23.7941L12.0461 21.0941C10.4945 21.0935 8.97182 20.7057 7.62273 19.9735L6.33478 22.3465ZM12.045 23.7941V26.4941H12.0502V23.7941V21.0941H12.045V23.7941ZM12.0502 23.7941V26.4941C20.1156 26.4941 26.6966 19.9614 26.7 11.9027L24 11.9015L21.3 11.9004C21.2978 16.9555 17.1564 21.0941 12.0502 21.0941V23.7941ZM24 11.9015L26.7 11.9025C26.7015 8.00477 25.1723 4.32847 22.409 1.57502L20.5032 3.48764L18.5975 5.40026C20.3461 7.1426 21.3009 9.44271 21.3 11.9005L24 11.9015ZM20.5032 3.48764L22.4087 1.57474C19.645 -1.17821 15.9597 -2.69841 12.0513 -2.7L12.0502 0L12.0491 2.7C14.5339 2.70101 16.8486 3.65821 18.5977 5.40054L20.5032 3.48764ZM12.0502 0V-2.7C3.98393 -2.7 -2.59646 3.83175 -2.59968 11.8909L0.10032 11.892L2.80032 11.8931C2.80234 6.83795 6.94283 2.7 12.0502 2.7V0ZM3.87282 17.527L6.15445 16.0833L5.91791 15.7095L3.63628 17.1531L1.35465 18.5968L1.59119 18.9706L3.87282 17.527ZM3.63628 17.1531L5.91888 15.711C5.19855 14.5709 4.81736 13.2526 4.8179 11.8938L2.1179 11.8927L-0.5821 11.8917C-0.583042 14.268 0.0853684 16.5878 1.35368 18.5953L3.63628 17.1531ZM2.1179 11.8927L4.8179 11.8938C4.81946 7.94638 8.05422 4.7085 12.054 4.7085V2.0085V-0.691496C5.09666 -0.691496 -0.579345 4.93885 -0.5821 11.8917L2.1179 11.8927ZM12.054 2.0085L12.0529 4.7085C13.9937 4.70933 15.8017 5.457 17.1703 6.82028L19.0758 4.90739L20.9813 2.99451C18.5991 0.621507 15.4207 -0.69007 12.0551 -0.691496L12.054 2.0085ZM19.0758 4.90739L17.1702 6.82019C18.5378 8.18263 19.2828 9.97804 19.2824 11.9002L21.9824 11.9008L24.6824 11.9014C24.6832 8.54055 23.3646 5.3688 20.9814 2.9946L19.0758 4.90739ZM21.9824 11.9008L19.2824 11.8996C19.2807 15.8479 16.0447 19.0855 12.0502 19.0855V21.7855V24.4855C19.0041 24.4855 24.6793 18.8537 24.6824 11.902L21.9824 11.9008ZM12.0502 21.7855V19.0855H12.0464V21.7855V24.4855H12.0502V21.7855ZM12.0464 21.7855L12.0476 19.0855C10.7444 19.0849 9.4705 18.7362 8.36435 18.0828L6.99112 20.4075L5.61789 22.7322C7.56086 23.88 9.78327 24.4845 12.0452 24.4855L12.0464 21.7855ZM6.99112 20.4075L8.36339 18.0822L8.00059 17.8681L6.62832 20.1934L5.25605 22.5187L5.61885 22.7328L6.99112 20.4075ZM6.62832 20.1934L5.94653 17.5809L2.18733 18.562L2.86912 21.1745L3.55091 23.787L7.31011 22.8059L6.62832 20.1934ZM2.86912 21.1745L5.47236 21.8908L6.47606 18.2433L3.87282 17.527L1.26958 16.8106L0.265883 20.4581L2.86912 21.1745Z" fill="white" mask="url(#path-1-inside-1_648_10136)"/>
<path d="M9.0643 6.92041C8.84062 6.42548 8.60522 6.41548 8.3925 6.40681C8.2183 6.39935 8.01918 6.39991 7.82024 6.39991C7.62112 6.39991 7.29758 6.47448 7.02412 6.77174C6.75038 7.06929 5.979 7.78831 5.979 9.25072C5.979 10.7132 7.04896 12.1266 7.19812 12.325C7.34746 12.5233 9.26372 15.6203 12.2987 16.8119C14.8209 17.802 15.3341 17.6051 15.8815 17.5553C16.4291 17.506 17.6481 16.8366 17.8969 16.1425C18.1457 15.4484 18.1457 14.8536 18.0711 14.7292C17.9965 14.6054 17.7975 14.5309 17.4989 14.3824C17.2001 14.2337 15.7323 13.5146 15.4585 13.4154C15.1847 13.3163 14.9857 13.2667 14.7867 13.5645C14.5875 13.8615 14.0157 14.5309 13.8415 14.7292C13.6673 14.9278 13.4931 14.9527 13.1945 14.804C12.8957 14.6547 11.9342 14.3413 10.7933 13.3288C9.90572 12.5409 9.30646 11.5679 9.13228 11.2702C8.95808 10.9731 9.11362 10.812 9.26334 10.6639C9.3975 10.5307 9.56202 10.3168 9.71146 10.1433C9.86034 9.96966 9.91002 9.84581 10.0096 9.64758C10.1092 9.44916 10.0594 9.27557 9.98484 9.12687C9.91002 8.9782 9.3298 7.50814 9.0643 6.92041Z" fill="white"/>
</g>
<defs>
<clipPath id="clip0_648_10136">
<rect width="24" height="24" fill="white"/>
</clipPath>
</defs>
</svg>
