<svg width="110" height="12" viewBox="0 0 110 12" fill="none" xmlns="http://www.w3.org/2000/svg">
<g clip-path="url(#clip0_648_10205)">
<path d="M68.0441 11.225V2.18536H64.6543V0.5H73.3337V2.18536H69.9438V11.225H68.0441Z" fill="white" fill-opacity="0.4"/>
<path d="M54.6934 11.225V0.5H58.9012C59.8073 0.5 60.5817 0.653215 61.2244 0.959645C61.8771 1.26607 62.3791 1.70529 62.7296 2.27729C63.0801 2.84929 63.2558 3.52854 63.2558 4.31503C63.2558 5.10153 63.0801 5.78078 62.7296 6.35278C62.3791 6.91459 61.8771 7.34866 61.2244 7.65511C61.179 7.67613 61.1328 7.6964 61.0858 7.71592L63.431 11.225H61.3854L59.3016 8.08937C59.1711 8.09609 59.0376 8.09941 58.9012 8.09941H56.5927V11.225H54.6934ZM56.5927 6.46003H58.8136C59.6514 6.46003 60.2795 6.27109 60.6986 5.89314C61.1273 5.51522 61.3414 4.98916 61.3414 4.31503C61.3414 3.63068 61.1273 3.10465 60.6986 2.73693C60.2795 2.36921 59.6514 2.18536 58.8136 2.18536H56.5927V6.46003Z" fill="white" fill-opacity="0.4"/>
<path d="M41.5703 11.225L46.1731 0.5H48.0431L52.6605 11.225H50.6732L49.6568 8.74291L49.3367 7.96153L49.0166 7.18014L47.0941 2.48643L45.1787 7.18014H49.0166L49.3367 7.96153L49.6568 8.74291H44.541L43.5283 11.225H41.5703Z" fill="white" fill-opacity="0.4"/>
<path d="M36.0872 11.225V2.18536H32.6973V0.5H41.3765V2.18536H37.9867V11.225H36.0872Z" fill="white" fill-opacity="0.4"/>
<path d="M27.4292 11.225C26.6304 11.225 25.8657 11.1108 25.1351 10.8824C24.4045 10.6441 23.825 10.3412 23.3964 9.97375L24.0539 8.46928C24.463 8.79697 24.9695 9.07006 25.5735 9.28853C26.1775 9.507 26.796 9.61625 27.4292 9.61625C27.9649 9.61625 28.3984 9.55666 28.7296 9.4375C29.0608 9.31835 29.3043 9.15944 29.4602 8.96085C29.616 8.75228 29.694 8.51894 29.694 8.26072C29.694 7.94294 29.582 7.68972 29.3579 7.50103C29.1339 7.30244 28.8416 7.1485 28.4812 7.03928C28.1305 6.92009 27.736 6.81088 27.2977 6.71156C26.8691 6.61225 26.4356 6.49806 25.9972 6.36897C25.5686 6.22994 25.1741 6.05616 24.8137 5.84759C24.463 5.62912 24.1756 5.34116 23.9516 4.98366C23.7276 4.62616 23.6156 4.16934 23.6156 3.61323C23.6156 3.04719 23.7617 2.5308 24.0539 2.06406C24.3559 1.5874 24.8088 1.21003 25.4128 0.931978C26.0265 0.643993 26.8009 0.5 27.736 0.5C28.3497 0.5 28.9585 0.579445 29.5624 0.738334C30.1664 0.897222 30.6924 1.12563 31.1405 1.42354L30.5414 2.92802C30.0836 2.64997 29.6112 2.44639 29.1241 2.31729C28.6371 2.17826 28.1695 2.10875 27.7214 2.10875C27.1954 2.10875 26.7668 2.1733 26.4356 2.3024C26.1141 2.43149 25.8755 2.60031 25.7196 2.80885C25.5735 3.0174 25.5004 3.25573 25.5004 3.52385C25.5004 3.84163 25.6076 4.09981 25.8219 4.29844C26.0459 4.48713 26.3333 4.63606 26.684 4.74531C27.0444 4.85457 27.4438 4.96378 27.8821 5.07303C28.3205 5.17231 28.7539 5.28653 29.1825 5.41563C29.6209 5.54472 30.0154 5.71353 30.3661 5.9221C30.7265 6.13063 31.0139 6.41366 31.2282 6.77116C31.4522 7.12866 31.5642 7.5805 31.5642 8.12666C31.5642 8.68278 31.4133 9.19916 31.1113 9.67585C30.8191 10.1426 30.3661 10.5199 29.7524 10.8079C29.1387 11.086 28.3643 11.225 27.4292 11.225Z" fill="white" fill-opacity="0.4"/>
<path d="M11.1132 11.225L15.7158 0.5H17.5861L22.2034 11.225H20.2162L19.1996 8.74291L18.8795 7.96153L18.5595 7.18014L16.637 2.48643L14.7217 7.18014H18.5595L18.8795 7.96153L19.1996 8.74291H14.084L13.0711 11.225H11.1132Z" fill="white" fill-opacity="0.4"/>
<path d="M0 11.225V0.5H1.56344L7.20353 7.76125V0.5H9.08842V11.225H7.52499L1.8849 3.96376V11.225H0Z" fill="white" fill-opacity="0.4"/>
<path d="M102.266 11.225V4.09788V0.5H106.195C107.209 0.5 108.007 0.729821 108.588 1.18946C109.178 1.64911 109.474 2.32836 109.474 3.22721C109.474 3.80943 109.344 4.29973 109.086 4.69809C108.837 5.09641 108.487 5.39264 108.035 5.58673C107.928 5.63331 107.818 5.67428 107.704 5.70967C108.012 5.76329 108.288 5.84488 108.533 5.95441C109.013 6.16891 109.377 6.48048 109.626 6.88903C109.875 7.29761 109.999 7.80323 109.999 8.40586C109.999 9.30473 109.704 9.99928 109.114 10.4896C108.533 10.9799 107.652 11.225 106.471 11.225H102.266ZM102.736 10.7654H106.499C107.486 10.7654 108.238 10.5764 108.754 10.1985C109.271 9.81034 109.529 9.20766 109.529 8.39053C109.529 7.56316 109.271 6.96053 108.754 6.58261C108.238 6.19448 107.486 6.00039 106.499 6.00039H102.66L102.653 5.55609H106.208C107.094 5.55609 107.781 5.362 108.27 4.97386C108.768 4.58573 109.017 4.01371 109.017 3.25786C109.017 2.502 108.768 1.93 108.27 1.54186C107.781 1.15371 107.094 0.959645 106.208 0.959645H102.736V4.09788H102.266V4.82697V5.55609H102.653L102.736 10.7654Z" fill="white" fill-opacity="0.4"/>
<path d="M93.4958 10.75H99.5697V11.225H93.0254V0.5H99.3761V0.974964H93.4958V4.07897H93.0254V5.54075H98.7535V6.01573H93.4958V10.75Z" fill="white" fill-opacity="0.4"/>
<path d="M80.3066 11.225L77 0.5H77.4979L80.6802 10.8726L80.791 11.225L81.5775 8.721L81.3476 7.9735L83.71 0.5H84.1665L87.3129 10.495L87.5387 11.225L88.3256 8.72962L88.0913 7.96928L90.3925 0.5H90.8629L88.3256 8.72962L87.5387 11.225H87.0859L83.8761 1.05157H83.9868L81.5775 8.721L80.791 11.225H80.3066Z" fill="white" fill-opacity="0.4"/>
</g>
<defs>
<clipPath id="clip0_648_10205">
<rect width="110" height="11" fill="white" transform="translate(0 0.5)"/>
</clipPath>
</defs>
</svg>
