<svg width="24" height="24" viewBox="0 0 24 24" fill="none" xmlns="http://www.w3.org/2000/svg">
<mask id="mask0_53_283" style="mask-type:luminance" maskUnits="userSpaceOnUse" x="0" y="0" width="24" height="24">
<path d="M22.6504 1.34961V22.6504H1.34961V1.34961H22.6504Z" fill="white" stroke="white" stroke-width="2.7"/>
</mask>
<g mask="url(#mask0_53_283)">
<path d="M23.446 6.37482C23.6116 5.81104 23.446 5.40002 22.6502 5.40002H20.0251C19.3589 5.40002 19.0492 5.75648 18.8835 6.1493C18.8835 6.1493 17.5476 9.43741 15.6571 11.5725C15.0449 12.1908 14.7676 12.3872 14.4327 12.3872C14.2671 12.3872 14.0258 12.1908 14.0258 11.6271V6.37482C14.0258 5.70192 13.8314 5.40002 13.2768 5.40002H9.15009C8.73238 5.40002 8.48031 5.71283 8.48031 6.01109C8.48031 6.65125 9.42737 6.79674 9.5246 8.5972V12.5036C9.5246 13.3584 9.36975 13.5148 9.03846 13.5148C8.14902 13.5148 5.98483 10.2121 4.69928 6.43301C4.44721 5.69828 4.19514 5.40366 3.52536 5.40366H0.900245C0.151241 5.40366 0 5.76011 0 6.15294C0 6.85494 0.889443 10.3395 4.14473 14.9479C6.31612 18.0941 9.36975 19.8 12.1533 19.8C13.8206 19.8 14.0294 19.4217 14.0294 18.767V16.3883C14.0294 15.6317 14.1879 15.4789 14.7172 15.4789C15.1061 15.4789 15.7759 15.6753 17.3315 17.1921C19.1104 18.9889 19.4057 19.7964 20.4068 19.7964H23.0319C23.7809 19.7964 24.1554 19.4181 23.9393 18.6688C23.7017 17.9232 22.8518 16.8429 21.7247 15.559C21.1126 14.8279 20.1943 14.0422 19.917 13.6494C19.5281 13.1438 19.6397 12.9183 19.917 12.4709C19.9134 12.4709 23.1111 7.92066 23.446 6.37482Z" fill="#101010"/>
</g>
</svg>
